<svg xmlns="http://www.w3.org/2000/svg" viewBox="0 0 167.26 202.66"><defs><style>.cls-1{fill:#ef415f;}.cls-2{fill:#4e2e8e;}.cls-3{fill:#7562ab;}</style></defs><title>Logo 2</title><g id="Layer_2" data-name="Layer 2"><g id="LOGO"><g id="Components"><circle id="Head" class="cls-1" cx="104.03" cy="53.61" r="12.5"/><path id="Stick" class="cls-2" d="M83.17,44.76A69.27,69.27,0,0,0,84.6,58.82a1.18,1.18,0,0,1-2.13.9,49.7,49.7,0,0,1,0-55A10.5,10.5,0,0,1,92.12,0q2.4.22,4.74.6a1.17,1.17,0,0,1,.74,1.87A68.7,68.7,0,0,0,83.17,44.76Z"/><path id="Left" class="cls-1" d="M128.77,180c-2.29,6.73-7.22,13.87-12.33,15.8l-.66.23a27.47,27.47,0,0,1-12.19.6c-5-.83-18.45-5.93-35.1-15.66C49.16,169,44.64,166.84,44.37,167.25c-.47.71,10.66,10,24.3,18.18,18.08,10.88,34.52,14.74,34,16.38-.29.87-13.88,1-16.65.72s-18.6-2.91-26.74-6.18C30.06,184.66,1.32,153.64.05,114.51c-.28-8.58-.12-43.82,27.4-65.7A70.77,70.77,0,0,1,54.19,35.73a1.33,1.33,0,0,1,1.1,2.37A25.57,25.57,0,0,0,49,44.32a32.14,32.14,0,0,0-4.61,19.79C45.09,73,51,80.29,59.3,87.13c1.3,1.07,2.67,2.14,4.09,3.19,35.4,26.18,56.1,39.35,64,60.67C128.57,154.12,133.1,167.21,128.77,180Z"/><path id="Right" class="cls-3" d="M166.28,112.71c-1.94,11.92-7.27,24-10.67,31.68a145.41,145.41,0,0,1-11.05,21.31,1.73,1.73,0,0,1-3.18-.86,63.25,63.25,0,0,0-4.85-21.53c-7.89-18.59-23.29-29-31-34.2-3.17-2.14-2-1.12-11.88-7.2-15-9.27-22.46-13.9-25.92-17.28C65,81.93,48.91,66.21,53.86,50.18c1.78-5.78,5.79-9.94,9.77-12.81a.88.88,0,0,1,1.39.91,21.64,21.64,0,0,0,.59,13c.76,2,3,6.87,10.8,11.58C95,74.07,127.25,73.76,131,64.11c3-7.84-10.34-19.9-12.06-21.42a36.92,36.92,0,0,0-8-5.4,1.72,1.72,0,0,1,1-3.24c12.16,1.77,25.23,5,32.19,10.62C166.1,62.59,169.35,93.92,166.28,112.71Z"/></g></g></g></svg>